<?xml version="1.0" encoding="UTF-8"?>
<!--Generator: Apple Native CoreSVG 175.5-->
<!DOCTYPE svg
PUBLIC "-//W3C//DTD SVG 1.1//EN"
       "http://www.w3.org/Graphics/SVG/1.1/DTD/svg11.dtd">
<svg version="1.1" xmlns="http://www.w3.org/2000/svg" xmlns:xlink="http://www.w3.org/1999/xlink" width="36.6084" height="36.8311">
 <g>
  <rect height="36.8311" opacity="0" width="36.6084" x="0" y="0"/>
  <path d="M28.7041 24.8633C18.666 24.8633 12.2461 18.5732 12.2461 8.5166C12.2461 6.43848 12.7471 3.46973 13.415 1.92969C13.582 1.50293 13.6191 1.24316 13.6191 1.05762C13.6191 0.556641 13.248 0 12.5244 0C12.3203 0 11.875 0.0556641 11.4668 0.204102C4.60156 2.9502 0 10.335 0 18.1094C0 29.0195 8.3125 36.8125 19.1855 36.8125C27.1826 36.8125 34.1035 31.9697 36.4043 25.9209C36.5713 25.4941 36.6084 25.0488 36.6084 24.8818C36.6084 24.1953 36.0332 23.7314 35.5137 23.7314C35.2725 23.7314 35.0684 23.7871 34.7158 23.8984C33.2871 24.3623 30.9863 24.8633 28.7041 24.8633Z" fill="#ffffff"/>
 </g>
</svg>
