<svg width="26" height="32" viewBox="0 0 26 32" fill="none"
    xmlns="http://www.w3.org/2000/svg">
    <g clip-path="url(#clip0_2_24)">
        <path d="M7.03867 6.08067H9.15425V3.23327C9.15425 2.47484 9.68648 1.98254 10.4848 1.98254H15.2483C16.0466 1.98254 16.5788 2.47484 16.5788 3.23327V6.08067H18.6944V3.10021C18.6944 1.17089 17.4437 0 15.3946 0H10.3385C8.28942 0 7.03867 1.17089 7.03867 3.10021V6.08067ZM0.99792 7.14512H24.775C25.3206 7.14512 25.7597 6.67942 25.7597 6.13389C25.7597 5.58836 25.3206 5.13597 24.775 5.13597H0.99792C0.465697 5.13597 0 5.58836 0 6.13389C0 6.69273 0.465697 7.14512 0.99792 7.14512ZM6.78587 29.6316H18.9871C20.8899 29.6316 22.1672 28.3942 22.2603 26.4915L23.1917 6.89231H21.0495L20.158 26.2653C20.1314 27.0636 19.5593 27.6224 18.7743 27.6224H6.97215C6.21373 27.6224 5.64158 27.0503 5.60166 26.2653L4.65697 6.89231H2.56798L3.51269 26.5048C3.60582 28.4075 4.85655 29.6316 6.78587 29.6316ZM8.94141 25.3472C9.44697 25.3472 9.77963 25.0279 9.7663 24.5622L9.35382 10.3251C9.34055 9.85945 9.00789 9.55346 8.52894 9.55346C8.02331 9.55346 7.69064 9.87279 7.70398 10.3385L8.10312 24.5622C8.11646 25.0412 8.44905 25.3472 8.94141 25.3472ZM12.8798 25.3472C13.3854 25.3472 13.7447 25.0279 13.7447 24.5622V10.3385C13.7447 9.87279 13.3854 9.55346 12.8798 9.55346C12.3743 9.55346 12.0283 9.87279 12.0283 10.3385V24.5622C12.0283 25.0279 12.3743 25.3472 12.8798 25.3472ZM16.8316 25.3472C17.3106 25.3472 17.6432 25.0412 17.6566 24.5622L18.0557 10.3385C18.0691 9.87279 17.7364 9.55346 17.2308 9.55346C16.7518 9.55346 16.4191 9.85945 16.4058 10.3385L16.0067 24.5622C15.9933 25.0279 16.326 25.3472 16.8316 25.3472Z" fill="black" fill-opacity="0.85"/>
    </g>
    <defs>
        <clipPath id="clip0_2_24">
            <rect width="25.7597" height="32" fill="white"/>
        </clipPath>
    </defs>
</svg>
