<?xml version="1.0" encoding="UTF-8"?>
<!--Generator: Apple Native CoreSVG 175.5-->
<!DOCTYPE svg
PUBLIC "-//W3C//DTD SVG 1.1//EN"
       "http://www.w3.org/Graphics/SVG/1.1/DTD/svg11.dtd">
<svg version="1.1" xmlns="http://www.w3.org/2000/svg" xmlns:xlink="http://www.w3.org/1999/xlink" width="40.1709" height="40.3193">
 <g>
  <rect height="40.3193" opacity="0" width="40.1709" x="0" y="0"/>
  <path d="M20.0762 29.6133C25.2344 29.6133 29.5205 25.3271 29.5205 20.1504C29.5205 14.9551 25.2344 10.6689 20.0762 10.6689C14.8994 10.6689 10.6133 14.9551 10.6133 20.1504C10.6133 25.3271 14.8994 29.6133 20.0762 29.6133ZM20.0762 26.7744C16.4395 26.7744 13.4336 23.7686 13.4336 20.1504C13.4336 16.5137 16.4395 13.5078 20.0762 13.5078C23.6943 13.5078 26.7002 16.5137 26.7002 20.1504C26.7002 23.7686 23.6943 26.7744 20.0762 26.7744ZM21.709 1.63281C21.709 0.742188 20.9668 0 20.0762 0C19.2041 0 18.4619 0.742188 18.4619 1.63281L18.4619 5.5293C18.4619 6.40137 19.2041 7.14355 20.0762 7.14355C20.9668 7.14355 21.709 6.40137 21.709 5.5293ZM29.2422 8.70215C28.6299 9.33301 28.6299 10.3535 29.2422 10.9844C29.873 11.5967 30.9121 11.6152 31.543 10.9844L34.3076 8.21973C34.9385 7.58887 34.9385 6.53125 34.3076 5.91895C33.6953 5.28809 32.6562 5.28809 32.0439 5.91895ZM38.5381 21.7646C39.4287 21.7646 40.1709 21.0225 40.1709 20.1504C40.1709 19.2783 39.4287 18.5361 38.5381 18.5361L34.6602 18.5361C33.7881 18.5361 33.0459 19.2783 33.0459 20.1504C33.0459 21.0225 33.7881 21.7646 34.6602 21.7646ZM31.5244 29.335C30.9121 28.7041 29.873 28.7041 29.2422 29.335C28.6299 29.9473 28.6299 30.9863 29.2422 31.6172L32.0439 34.4004C32.6562 35.0127 33.6953 34.9941 34.3076 34.3818C34.9385 33.751 34.9385 32.7119 34.3076 32.0996ZM21.709 34.7715C21.709 33.8809 20.9668 33.1387 20.0762 33.1387C19.2041 33.1387 18.4619 33.8809 18.4619 34.7715L18.4619 38.668C18.4619 39.54 19.2041 40.2822 20.0762 40.2822C20.9668 40.2822 21.709 39.54 21.709 38.668ZM5.84473 32.0811C5.23242 32.6934 5.23242 33.7324 5.82617 34.3633C6.43848 34.9756 7.49609 34.9941 8.12695 34.3818L10.8916 31.6172C11.5225 31.0049 11.5225 29.9658 10.9102 29.335C10.2979 28.7227 9.24023 28.7227 8.60938 29.335ZM1.61426 18.5361C0.742188 18.5361 0 19.2783 0 20.1504C0 21.0225 0.742188 21.7646 1.61426 21.7646L5.49219 21.7646C6.38281 21.7646 7.125 21.0225 7.125 20.1504C7.125 19.2783 6.38281 18.5361 5.49219 18.5361ZM8.60938 10.9844C9.24023 11.5967 10.2793 11.5967 10.8916 10.9844C11.5225 10.3906 11.5225 9.31445 10.9102 8.70215L8.14551 5.91895C7.55176 5.30664 6.49414 5.28809 5.86328 5.91895C5.25098 6.53125 5.25098 7.58887 5.84473 8.20117Z" fill="#000000" fill-opacity="0.85"/>
 </g>
</svg>
