<svg width="30" height="32" viewBox="0 0 30 32" fill="none"
    xmlns="http://www.w3.org/2000/svg">
    <g clip-path="url(#clip0_6_38)">
        <path d="M4.75421 29.9069H22.5296C25.2549 29.9069 26.8295 28.3322 26.8295 25.2132V9.02761L24.3918 11.4653V25.0921C24.3918 26.6667 23.5439 27.4692 22.4993 27.4692H4.79964C3.28556 27.4692 2.43767 26.6667 2.43767 25.0921V7.90722C2.43767 6.33258 3.28556 5.51498 4.79964 5.51498H18.593L21.0306 3.0773H4.75421C1.60493 3.0773 0 4.65195 0 7.77095V25.2132C0 28.3473 1.60493 29.9069 4.75421 29.9069Z" fill="black" fill-opacity="1"/>
        <path d="M10.2655 20.0956L13.2179 18.8086L27.3594 4.68223L25.2851 2.63822L11.1588 16.7646L9.79613 19.6111C9.67495 19.8685 9.97777 20.2167 10.2655 20.0956ZM28.4799 3.57695L29.57 2.45653C30.0848 1.91145 30.0848 1.1847 29.57 0.68505L29.2217 0.32167C28.7525 -0.147695 28.0105 -0.0871319 27.5109 0.397374L26.4056 1.48751L28.4799 3.57695Z" fill="black" fill-opacity="1"/>
    </g>
    <defs>
        <clipPath id="clip0_6_38">
            <rect width="29.9561" height="32" fill="white"/>
        </clipPath>
    </defs>
</svg>
