<svg width="31" height="31" viewBox="0 0 31 31" fill="none" xmlns="http://www.w3.org/2000/svg">
<g clip-path="url(#clip0_1_15)">
<path d="M0 15.3076C0 16.2168 0.760742 16.959 1.65137 16.959H13.6562V28.9639C13.6562 29.8545 14.3984 30.6152 15.3076 30.6152C16.2168 30.6152 16.9775 29.8545 16.9775 28.9639V16.959H28.9639C29.8545 16.959 30.6152 16.2168 30.6152 15.3076C30.6152 14.3984 29.8545 13.6377 28.9639 13.6377H16.9775V1.65137C16.9775 0.760742 16.2168 0 15.3076 0C14.3984 0 13.6562 0.760742 13.6562 1.65137V13.6377H1.65137C0.760742 13.6377 0 14.3984 0 15.3076Z" fill="black" fill-opacity="0.85"/>
</g>
<defs>
<clipPath id="clip0_1_15">
<rect width="30.6152" height="30.6338" fill="white"/>
</clipPath>
</defs>
</svg>
